<svg width="329" height="198" viewBox="0 0 329 198" fill="none" xmlns="http://www.w3.org/2000/svg">
<rect width="329" height="197.4" fill="#F1F1F1"/>
<path d="M180.933 75.5157H145.189C142.368 75.5157 140.082 77.8019 140.082 80.6221V116.367C140.082 119.187 142.368 121.473 145.189 121.473H180.933C183.753 121.473 186.039 119.187 186.039 116.367V80.6221C186.039 77.8019 183.753 75.5157 180.933 75.5157Z" stroke="#787878" stroke-width="4" stroke-linecap="round" stroke-linejoin="round"/>
<path d="M154.125 93.3879C156.24 93.3879 157.954 91.6733 157.954 89.5582C157.954 87.443 156.24 85.7284 154.125 85.7284C152.009 85.7284 150.295 87.443 150.295 89.5582C150.295 91.6733 152.009 93.3879 154.125 93.3879Z" stroke="#787878" stroke-width="4" stroke-linecap="round" stroke-linejoin="round"/>
<path d="M186.039 106.154L173.273 93.3879L145.188 121.473" stroke="#787878" stroke-width="4" stroke-linecap="round" stroke-linejoin="round"/>
</svg>
